<svg width="158" height="28" viewBox="0 0 158 28" fill="none" xmlns="http://www.w3.org/2000/svg">
<path d="M157.971 2.26169C157.696 2.17163 157.343 2.05607 157.156 1.9983C156.479 1.78418 155.788 1.60915 154.977 1.45111C153.206 1.10954 151.427 1.06705 149.894 1.05516H149.473C149.264 1.05346 149.087 1.05346 148.933 1.05346C148.045 1.05346 148.023 1.07555 147.957 1.14522L147.904 1.2013V1.27947C147.906 1.35934 147.904 24.6676 147.904 27.05H145.935C145.935 24.4908 145.937 1.33555 145.935 1.27777V1.2013L145.882 1.14522C145.818 1.07725 145.797 1.05346 144.925 1.05346C144.759 1.05346 144.56 1.05346 144.324 1.05516H143.918C142.39 1.06705 140.609 1.10954 138.84 1.45111C138.028 1.61084 137.336 1.78248 136.662 1.9983C136.475 2.05607 136.121 2.17333 135.846 2.26169C135.882 2.16993 135.916 2.08156 135.953 1.9915C136.099 1.62784 136.227 1.30156 136.335 0.958296C136.43 0.650715 136.59 0.594636 136.871 0.594636C139.545 0.598035 142.247 0.603133 144.925 0.603133H148.933C151.597 0.603133 154.287 0.599734 156.95 0.594636C157.227 0.594636 157.385 0.650715 157.482 0.958296C157.589 1.29986 157.718 1.62784 157.864 1.9898C157.9 2.07986 157.936 2.16993 157.971 2.26169Z" fill="white"/>
<path d="M106.947 25.4796C106.787 25.9554 106.527 26.7286 106.441 26.992C106.425 27.0379 106.34 27.0616 106.182 27.0616H90.1066V0.606235H93.1824C97.3951 0.606235 101.749 0.606235 106.04 0.596039C106.352 0.596039 106.466 0.682705 106.572 1.00728L106.866 1.90793C106.094 1.64793 104.119 1.16872 100.029 1.16872C98.6526 1.16872 94.7492 1.13303 93.0804 1.11774C92.6556 1.11434 92.3888 1.11264 92.3633 1.11264H92.1696V12.9146H97.407C99.8693 12.9452 101.135 12.5713 101.66 12.3555V14.0158C101.146 13.8339 99.8829 13.523 97.4036 13.5858C96.1019 13.6181 93.6616 13.596 92.7423 13.5875C92.3361 13.5841 92.3344 13.5841 92.3157 13.5875L92.1492 13.6096V26.5297H92.3429C92.3973 26.5297 99.0366 26.4941 101.042 26.438C102.814 26.387 104.898 26.2324 106.949 25.4779L106.947 25.4796Z" fill="white"/>
<path d="M132.096 0.623067C130.91 2.37169 124.944 11.1607 123.069 14.0836L122.729 14.6138C122.582 14.8449 122.495 15.1542 122.495 15.4397C122.48 19.5028 122.48 23.1496 122.495 26.5874V27.0394H120.417V24.4139C120.417 21.5641 120.417 18.6191 120.406 15.7252C120.406 15.4533 120.313 15.1389 120.165 14.9044C117.691 10.9993 115.188 7.06359 112.848 3.3964L111.092 0.634963H113.495C113.585 0.634963 113.723 0.85078 113.796 0.964636C116.134 4.63182 121.492 13.8984 121.547 13.9918L121.705 14.2654L121.878 14.002C121.893 13.9782 122.437 13.1574 123.249 11.9356C125.778 8.12058 130.485 1.02071 130.628 0.799799C130.737 0.626466 130.794 0.624767 130.796 0.624767C131.131 0.621368 131.461 0.621368 131.818 0.624767H132.098L132.096 0.623067Z" fill="white"/>
<path d="M18.5704 20.8962C18.5704 21.4315 18.5059 21.9701 18.3716 22.4901C17.8873 24.3832 16.5822 25.8464 14.6925 26.6094C14.4291 26.7164 14.1589 26.8133 13.8871 26.8965C12.7451 27.2585 11.5369 27.4352 10.2165 27.4352C9.66078 27.4352 9.0762 27.403 8.48483 27.3401C5.65712 27.0393 2.98065 26.1081 0.528496 24.5769C0.435032 24.5192 0.341568 24.458 0.248104 24.3968L0.049281 24.2626C0.0339869 24.2524 0.0220915 24.2439 0 24.2252L1.51412 22.6125L1.84889 22.9218C4.61882 25.4419 7.83398 26.7521 11.4094 26.8082C12.2115 26.8167 12.9966 26.6977 13.7494 26.453C14.1878 26.312 14.6178 26.1267 15.0324 25.8973C16.2831 25.2057 17.1209 24.1164 17.3894 22.8266C17.6613 21.5266 17.3299 20.1807 16.4531 19.0388C15.6748 18.0209 14.6008 17.1712 13.1665 16.4388C11.9923 15.8372 10.7739 15.2679 9.5962 14.7156L9.07111 14.4709C8.86888 14.3775 8.66836 14.284 8.46954 14.1888L8.21633 14.0682C6.67163 13.346 5.07764 12.5966 3.70457 11.5124C2.31281 10.4129 1.48523 9.20296 1.17935 7.8112C0.582875 5.05996 1.71804 2.56192 4.05294 1.27042C4.4064 1.07499 4.79045 0.906758 5.1983 0.769111C7.50601 -0.00579028 9.94287 0.00270639 12.8657 0.794601C14.3357 1.19225 15.7648 1.81421 17.1141 2.64519C17.2093 2.70127 17.3044 2.76414 17.4047 2.83042L17.6103 2.96636L16.2627 4.62153C16.1013 4.48898 15.945 4.35983 15.7869 4.22728L15.7495 4.19669C15.3315 3.84833 14.9355 3.51865 14.5107 3.21617C12.5225 1.81081 10.3864 1.02401 8.16196 0.877869C6.92313 0.798 5.82026 0.957739 4.78536 1.36898C4.60013 1.44205 4.4217 1.52702 4.25346 1.62218C3.1251 2.24584 2.35359 3.29434 2.10549 4.56885C1.8098 6.07617 2.29921 7.65656 3.3834 8.69826C4.65281 9.91839 6.21111 10.7001 7.69803 11.3985C8.40496 11.7282 9.11699 12.0545 9.82901 12.379L9.97516 12.4453C11.0508 12.9364 12.1639 13.4428 13.2396 13.9696C14.9491 14.8074 16.2661 15.8066 17.2637 17.0217C18.1082 18.0532 18.5687 19.4704 18.5687 20.8996L18.5704 20.8962Z" fill="white"/>
<path d="M81.8052 0.624789H79.851V27.0428H81.8052V0.624789Z" fill="white"/>
<path d="M71.9187 20.7224C69.64 24.5067 65.9237 27.1083 61.1844 27.1083C55.9251 27.1083 51.614 23.6316 49.5562 19.1472C49.8314 18.6969 49.8807 18.5983 50.1475 18.131C53.298 12.5896 55.8435 6.10007 60.3687 3.04136C62.4979 1.60207 65.2796 1.48821 67.4904 2.80006C68.9926 3.69219 70.2993 4.92417 71.6214 6.90553H72.6766C71.0589 4.31752 68.5915 2.31746 65.6688 1.2928C63.9644 0.694649 62.1411 0.441455 60.3058 0.563804C56.4739 0.83399 52.8698 2.77457 50.331 5.97602C50.3242 5.98282 50.3208 5.98622 50.3191 5.99132C49.9657 6.43483 49.6326 6.90383 49.3251 7.39493C46.9664 2.87143 42.1609 -0.178783 36.6671 0.00813797C29.5301 0.247737 23.7151 6.0219 23.4246 13.1555C23.1425 20.0852 27.9973 25.9324 34.4937 27.2018C38.6586 28.133 41.7717 27.302 44.2765 25.46C45.7039 24.4116 46.9342 23.0368 48.0472 21.4718C48.3769 21.0079 48.6997 20.5287 49.0107 20.0342C51.213 24.5322 55.8367 27.63 61.1844 27.63C66.1972 27.63 70.6188 24.8245 72.9587 20.7241H71.9187V20.7224ZM48.5553 8.75605C45.9962 13.2982 43.053 20.9807 38.5465 24.6359C36.3323 26.432 33.277 26.6733 30.7825 25.3003C26.6311 23.013 24.3524 18.5507 24.4526 13.4546C24.5886 6.61156 29.9583 0.704844 36.8013 0.533217C42.1422 0.398973 46.5909 3.82643 48.7932 8.28875L48.557 8.75605H48.5553Z" fill="white"/>
</svg>
