<svg width="42" height="29" viewBox="0 0 42 29" fill="none" xmlns="http://www.w3.org/2000/svg">
<path d="M13.8663 25.8189L39.4614 0.450383C39.7445 0.169856 40.0781 0.0202223 40.4625 0.00148845C40.8463 -0.016765 41.1984 0.132868 41.5187 0.450383C41.8396 0.768377 42 1.11111 42 1.47858C42 1.84653 41.8396 2.18926 41.5187 2.50678L15.5107 28.3018C15.0406 28.7673 14.4924 29 13.8663 29C13.2401 29 12.692 28.7673 12.2219 28.3018L0.444948 16.6292C0.161914 16.3487 0.0138546 16.0153 0.000769177 15.6291C-0.0123163 15.2429 0.141558 14.8908 0.462394 14.5728C0.782746 14.2553 1.1283 14.0965 1.49905 14.0965C1.87029 14.0965 2.21609 14.2553 2.53644 14.5728L13.8663 25.8189Z" fill="#A999F2"/>
</svg>
