<svg width="24" height="24" viewBox="0 0 24 24" fill="none" xmlns="http://www.w3.org/2000/svg">
<path d="M13.234 0C14.5839 0.00359992 15.2691 0.0107997 15.8607 0.0275994L16.0935 0.0359991C16.3623 0.0455989 16.6275 0.0575986 16.9479 0.0719982C18.2247 0.131997 19.0958 0.333592 19.8602 0.629985C20.6522 0.934778 21.3194 1.34757 21.9866 2.01355C22.5968 2.61341 23.0689 3.33903 23.3701 4.1399C23.6665 4.90428 23.8681 5.77546 23.9281 7.05343C23.9425 7.37263 23.9545 7.63782 23.9641 7.90781L23.9713 8.14061C23.9893 8.731 23.9965 9.41618 23.9989 10.7661L24.0001 11.6613V13.2333C24.0031 14.1086 23.9939 14.9838 23.9725 15.8588L23.9653 16.0916C23.9557 16.3616 23.9437 16.6268 23.9293 16.946C23.8693 18.224 23.6653 19.094 23.3701 19.8595C23.0698 20.6608 22.5975 21.3866 21.9866 21.9859C21.3865 22.5959 20.661 23.068 19.8602 23.3695C19.0958 23.6658 18.2247 23.8674 16.9479 23.9274C16.6632 23.9408 16.3784 23.9528 16.0935 23.9634L15.8607 23.9706C15.2691 23.9874 14.5839 23.9958 13.234 23.9982L12.3388 23.9994H10.768C9.89237 24.0025 9.01671 23.9933 8.1413 23.9718L7.90851 23.9646C7.62365 23.9538 7.33885 23.9415 7.05413 23.9274C5.77736 23.8674 4.90618 23.6658 4.14059 23.3695C3.33982 23.0687 2.61449 22.5965 2.01544 21.9859C1.40471 21.3862 0.93214 20.6606 0.630678 19.8595C0.334285 19.0952 0.132689 18.224 0.0726906 16.946C0.0593215 16.6613 0.0473217 16.3765 0.0366915 16.0916L0.0306918 15.8588C0.00857877 14.9838 -0.00142207 14.1086 0.000692385 13.2333V10.7661C-0.0026567 9.89089 0.00614403 9.01562 0.0270919 8.14061L0.0354916 7.90781C0.0450914 7.63782 0.0570911 7.37263 0.0714907 7.05343C0.131489 5.77546 0.333084 4.90549 0.629478 4.1399C0.930807 3.33821 1.40432 2.61237 2.01664 2.01355C2.61554 1.40334 3.34039 0.931163 4.14059 0.629985C4.90618 0.333592 5.77616 0.131997 7.05413 0.0719982C7.37332 0.0575986 7.63971 0.0455989 7.90851 0.0359991L8.1413 0.0287992C9.01631 0.00747907 9.89157 -0.0017216 10.7668 0.00119988L13.234 0ZM12.0004 5.99986C10.4091 5.99986 8.88306 6.63199 7.75787 7.75718C6.63268 8.88237 6.00055 10.4085 6.00055 11.9997C6.00055 13.591 6.63268 15.1171 7.75787 16.2423C8.88306 17.3675 10.4091 17.9996 12.0004 17.9996C13.5917 17.9996 15.1178 17.3675 16.243 16.2423C17.3681 15.1171 18.0003 13.591 18.0003 11.9997C18.0003 10.4085 17.3681 8.88237 16.243 7.75718C15.1178 6.63199 13.5917 5.99986 12.0004 5.99986ZM12.0004 8.3998C12.4732 8.39972 12.9413 8.49276 13.3781 8.6736C13.8149 8.85444 14.2118 9.11954 14.5461 9.45377C14.8804 9.788 15.1457 10.1848 15.3267 10.6215C15.5077 11.0583 15.6008 11.5264 15.6009 11.9991C15.601 12.4719 15.508 12.94 15.3271 13.3768C15.1463 13.8136 14.8812 14.2105 14.547 14.5448C14.2127 14.8792 13.8159 15.1444 13.3792 15.3254C12.9425 15.5064 12.4744 15.5996 12.0016 15.5996C11.0469 15.5996 10.1312 15.2204 9.45609 14.5452C8.78097 13.8701 8.4017 12.9545 8.4017 11.9997C8.4017 11.045 8.78097 10.1293 9.45609 9.45419C10.1312 8.77908 11.0469 8.3998 12.0016 8.3998M18.3015 4.1999C17.9036 4.1999 17.5221 4.35793 17.2408 4.63923C16.9595 4.92053 16.8015 5.30205 16.8015 5.69987C16.8015 6.09768 16.9595 6.4792 17.2408 6.7605C17.5221 7.0418 17.9036 7.19983 18.3015 7.19983C18.6993 7.19983 19.0808 7.0418 19.3621 6.7605C19.6434 6.4792 19.8014 6.09768 19.8014 5.69987C19.8014 5.30205 19.6434 4.92053 19.3621 4.63923C19.0808 4.35793 18.6993 4.1999 18.3015 4.1999Z" fill="white"/>
</svg>
