<svg width="86" height="49" viewBox="0 0 86 49" fill="none" xmlns="http://www.w3.org/2000/svg">
<path d="M84.1949 36.4564C80.2395 43.114 73.7888 47.6909 65.5625 47.6909C56.4336 47.6909 48.9506 41.5744 45.3787 33.6851C45.8565 32.8929 45.942 32.7195 46.4051 31.8974C51.8736 22.1486 56.292 10.7317 64.1467 5.35058C67.8425 2.81847 72.6709 2.61817 76.5083 4.92607C79.1157 6.49556 81.3839 8.66295 83.6787 12.1487H85.5104C82.7024 7.5957 78.4196 4.07705 73.3464 2.27438C70.388 1.22208 67.2231 0.77664 64.0376 0.991884C57.3863 1.46722 51.1303 4.88123 46.7236 10.5135C46.7118 10.5254 46.7059 10.5314 46.703 10.5404C46.0895 11.3206 45.5114 12.1457 44.9775 13.0097C40.8835 5.05163 32.5422 -0.314528 23.0062 0.0143169C10.6181 0.435837 0.524667 10.5942 0.0202923 23.1441C-0.469335 35.3353 7.95756 45.6222 19.2337 47.8553C26.4631 49.4936 31.8667 48.0317 36.2144 44.7911C38.692 42.9466 40.8275 40.5281 42.7594 37.7747C43.3317 36.9586 43.8921 36.1156 44.4318 35.2456C48.2545 43.1588 56.2802 48.6087 65.5625 48.6087C74.2637 48.6087 81.9385 43.673 86 36.4593H84.1949V36.4564ZM43.6414 15.4043C39.1993 23.3952 34.0907 36.9108 26.2684 43.3412C22.4252 46.5011 17.1218 46.9256 12.7919 44.5101C5.58612 40.4862 1.63075 32.6358 1.80478 23.6703C2.04074 11.6315 11.3614 1.24001 23.2392 0.938073C32.5097 0.701903 40.2317 6.73173 44.0543 14.5822L43.6443 15.4043H43.6414Z" fill="white"/>
</svg>
