<svg width="1049" height="190" viewBox="0 0 1049 190" fill="none" xmlns="http://www.w3.org/2000/svg">
<g filter="url(#filter0_d_2431_224)">
<path d="M1045 14.8979C1043.19 14.3046 1040.86 13.5434 1039.62 13.1629C1035.17 11.7525 1030.61 10.5995 1025.27 9.5585C1013.6 7.30857 1001.88 7.02873 991.774 6.95038H988.997C987.62 6.93918 986.455 6.93918 985.436 6.93918C979.59 6.93918 979.445 7.0847 979.008 7.54364L978.661 7.91303V8.42794C978.672 8.95404 978.661 162.486 978.661 178.18H965.682C965.682 161.322 965.693 8.79733 965.682 8.41675V7.91303L965.335 7.54364C964.909 7.0959 964.775 6.93918 959.03 6.93918C957.933 6.93918 956.623 6.93918 955.066 6.95038H952.39C942.322 7.02873 930.586 7.30857 918.929 9.5585C913.576 10.6107 909.018 11.7413 904.573 13.1629C903.341 13.5434 901.012 14.3158 899.197 14.8979C899.433 14.2934 899.657 13.7113 899.903 13.1181C900.866 10.7226 901.706 8.57346 902.423 6.31234C903.05 4.28629 904.102 3.9169 905.95 3.9169C923.576 3.93928 941.382 3.97286 959.03 3.97286H985.436C1002.99 3.97286 1020.72 3.95048 1038.27 3.9169C1040.1 3.9169 1041.14 4.28629 1041.77 6.31234C1042.48 8.56227 1043.33 10.7226 1044.29 13.1069C1044.53 13.7002 1044.76 14.2934 1045 14.8979Z" fill="url(#paint0_linear_2431_224)"/>
<path d="M1045 14.8979C1043.19 14.3046 1040.86 13.5434 1039.62 13.1629C1035.17 11.7525 1030.61 10.5995 1025.27 9.5585C1013.6 7.30857 1001.88 7.02873 991.774 6.95038H988.997C987.62 6.93918 986.455 6.93918 985.436 6.93918C979.59 6.93918 979.445 7.0847 979.008 7.54364L978.661 7.91303V8.42794C978.672 8.95404 978.661 162.486 978.661 178.18H965.682C965.682 161.322 965.693 8.79733 965.682 8.41675V7.91303L965.335 7.54364C964.909 7.0959 964.775 6.93918 959.03 6.93918C957.933 6.93918 956.623 6.93918 955.066 6.95038H952.39C942.322 7.02873 930.586 7.30857 918.929 9.5585C913.576 10.6107 909.018 11.7413 904.573 13.1629C903.341 13.5434 901.012 14.3158 899.197 14.8979C899.433 14.2934 899.657 13.7113 899.903 13.1181C900.866 10.7226 901.706 8.57346 902.423 6.31234C903.05 4.28629 904.102 3.9169 905.95 3.9169C923.576 3.93928 941.382 3.97286 959.03 3.97286H985.436C1002.99 3.97286 1020.72 3.95048 1038.27 3.9169C1040.1 3.9169 1041.14 4.28629 1041.77 6.31234C1042.48 8.56227 1043.33 10.7226 1044.29 13.1069C1044.53 13.7002 1044.76 14.2934 1045 14.8979Z" fill="url(#paint1_linear_2431_224)"/>
<path d="M708.76 167.835C707.707 170.969 705.994 176.062 705.423 177.797C705.322 178.1 704.762 178.256 703.721 178.256H597.784V3.9933H618.053C645.814 3.9933 674.504 3.9933 702.78 3.92613C704.841 3.92613 705.591 4.49701 706.285 6.635L708.223 12.5676C703.138 10.855 690.126 7.6984 663.172 7.6984C654.101 7.6984 628.378 7.46333 617.382 7.36259C614.582 7.3402 612.824 7.32901 612.656 7.32901H611.379V85.069H645.893C662.119 85.2705 670.462 82.8079 673.922 81.3863V92.3225C670.529 91.1248 662.209 89.0763 645.87 89.4905C637.292 89.7032 621.211 89.5576 615.153 89.5017C612.477 89.4793 612.465 89.4793 612.342 89.5017L611.245 89.6472V174.753H612.521C612.88 174.753 656.632 174.518 669.846 174.148C681.526 173.812 695.255 172.794 708.771 167.824L708.76 167.835Z" fill="url(#paint2_linear_2431_224)"/>
<path d="M708.76 167.835C707.707 170.969 705.994 176.062 705.423 177.797C705.322 178.1 704.762 178.256 703.721 178.256H597.784V3.9933H618.053C645.814 3.9933 674.504 3.9933 702.78 3.92613C704.841 3.92613 705.591 4.49701 706.285 6.635L708.223 12.5676C703.138 10.855 690.126 7.6984 663.172 7.6984C654.101 7.6984 628.378 7.46333 617.382 7.36259C614.582 7.3402 612.824 7.32901 612.656 7.32901H611.379V85.069H645.893C662.119 85.2705 670.462 82.8079 673.922 81.3863V92.3225C670.529 91.1248 662.209 89.0763 645.87 89.4905C637.292 89.7032 621.211 89.5576 615.153 89.5017C612.477 89.4793 612.465 89.4793 612.342 89.5017L611.245 89.6472V174.753H612.521C612.88 174.753 656.632 174.518 669.846 174.148C681.526 173.812 695.255 172.794 708.771 167.824L708.76 167.835Z" fill="url(#paint3_linear_2431_224)"/>
<path d="M874.488 4.10417C866.671 15.6225 827.354 73.5161 815.002 92.7692L812.762 96.2616C811.788 97.784 811.217 99.8212 811.217 101.702C811.116 128.466 811.116 152.487 811.217 175.132V178.11H797.521V160.815C797.521 142.044 797.521 122.645 797.454 103.582C797.454 101.791 796.838 99.7205 795.864 98.1757C779.559 72.4527 763.064 46.5282 747.644 22.3722L736.076 4.18253H751.911C752.504 4.18253 753.411 5.60412 753.893 6.3541C769.302 30.51 804.61 91.5491 804.968 92.1647L806.01 93.9669L807.152 92.2319C807.253 92.0752 810.836 86.6686 816.189 78.6204C832.852 53.4906 863.872 6.72349 864.812 5.26831C865.529 4.12656 865.91 4.11537 865.921 4.11537C868.127 4.09298 870.299 4.09298 872.651 4.11537H874.499L874.488 4.10417Z" fill="url(#paint4_linear_2431_224)"/>
<path d="M874.488 4.10417C866.671 15.6225 827.354 73.5161 815.002 92.7692L812.762 96.2616C811.788 97.784 811.217 99.8212 811.217 101.702C811.116 128.466 811.116 152.487 811.217 175.132V178.11H797.521V160.815C797.521 142.044 797.521 122.645 797.454 103.582C797.454 101.791 796.838 99.7205 795.864 98.1757C779.559 72.4527 763.064 46.5282 747.644 22.3722L736.076 4.18253H751.911C752.504 4.18253 753.411 5.60412 753.893 6.3541C769.302 30.51 804.61 91.5491 804.968 92.1647L806.01 93.9669L807.152 92.2319C807.253 92.0752 810.836 86.6686 816.189 78.6204C832.852 53.4906 863.872 6.72349 864.812 5.26831C865.529 4.12656 865.91 4.11537 865.921 4.11537C868.127 4.09298 870.299 4.09298 872.651 4.11537H874.499L874.488 4.10417Z" fill="url(#paint5_linear_2431_224)"/>
<path d="M126.376 137.644C126.376 141.17 125.95 144.718 125.065 148.144C121.874 160.613 113.273 170.251 100.821 175.277C99.0852 175.982 97.3046 176.62 95.5129 177.169C87.9876 179.553 80.0256 180.717 71.3245 180.717C67.6626 180.717 63.8104 180.504 59.9134 180.09C41.2793 178.109 23.6419 171.975 7.48269 161.889C6.86678 161.509 6.25087 161.106 5.63496 160.703L4.32475 159.819C4.22397 159.751 4.14558 159.695 4 159.572L13.9777 148.95L16.1838 150.987C34.4371 167.587 55.6244 176.217 79.1857 176.587C84.4713 176.643 89.645 175.859 94.6058 174.247C97.495 173.318 100.328 172.098 103.061 170.587C111.303 166.031 116.823 158.856 118.593 150.36C120.384 141.797 118.201 132.931 112.422 125.409C107.294 118.704 100.216 113.107 90.7648 108.283C83.0268 104.32 74.9975 100.57 67.2371 96.9326L63.7768 95.3207C62.4442 94.705 61.1228 94.0894 59.8126 93.4625L58.144 92.6678C47.9647 87.9105 37.4607 82.9741 28.4124 75.8325C19.241 68.5902 13.7874 60.6203 11.7717 51.4527C7.84103 33.3302 15.3215 16.8755 30.7081 8.3683C33.0373 7.08103 35.5681 5.97286 38.2558 5.06617C53.4631 -0.0381408 69.5215 0.0178271 88.7827 5.23407C98.4693 7.85339 107.887 11.9503 116.779 17.424C117.406 17.7934 118.033 18.2075 118.693 18.6441L120.048 19.5396L111.168 30.4422C110.104 29.5691 109.074 28.7184 108.033 27.8453L107.786 27.6438C105.032 25.3491 102.422 23.1775 99.6227 21.185C86.5206 11.9279 72.4443 6.74522 57.7857 5.78256C49.6221 5.25646 42.3543 6.30867 35.5345 9.01753C34.3139 9.49886 33.1381 10.0585 32.0295 10.6854C24.5938 14.7935 19.5097 21.7 17.8748 30.0952C15.9262 40.024 19.1514 50.4341 26.2959 57.2958C34.6611 65.3328 44.93 70.4819 54.7285 75.0825C59.387 77.2541 64.0791 79.4033 68.7712 81.5413L69.7343 81.9778C76.8229 85.2128 84.1578 88.5485 91.2463 92.0185C102.512 97.537 111.191 104.119 117.764 112.122C123.33 118.917 126.364 128.252 126.364 137.666L126.376 137.644Z" fill="url(#paint6_linear_2431_224)"/>
<path d="M126.376 137.644C126.376 141.17 125.95 144.718 125.065 148.144C121.874 160.613 113.273 170.251 100.821 175.277C99.0852 175.982 97.3046 176.62 95.5129 177.169C87.9876 179.553 80.0256 180.717 71.3245 180.717C67.6626 180.717 63.8104 180.504 59.9134 180.09C41.2793 178.109 23.6419 171.975 7.48269 161.889C6.86678 161.509 6.25087 161.106 5.63496 160.703L4.32475 159.819C4.22397 159.751 4.14558 159.695 4 159.572L13.9777 148.95L16.1838 150.987C34.4371 167.587 55.6244 176.217 79.1857 176.587C84.4713 176.643 89.645 175.859 94.6058 174.247C97.495 173.318 100.328 172.098 103.061 170.587C111.303 166.031 116.823 158.856 118.593 150.36C120.384 141.797 118.201 132.931 112.422 125.409C107.294 118.704 100.216 113.107 90.7648 108.283C83.0268 104.32 74.9975 100.57 67.2371 96.9326L63.7768 95.3207C62.4442 94.705 61.1228 94.0894 59.8126 93.4625L58.144 92.6678C47.9647 87.9105 37.4607 82.9741 28.4124 75.8325C19.241 68.5902 13.7874 60.6203 11.7717 51.4527C7.84103 33.3302 15.3215 16.8755 30.7081 8.3683C33.0373 7.08103 35.5681 5.97286 38.2558 5.06617C53.4631 -0.0381408 69.5215 0.0178271 88.7827 5.23407C98.4693 7.85339 107.887 11.9503 116.779 17.424C117.406 17.7934 118.033 18.2075 118.693 18.6441L120.048 19.5396L111.168 30.4422C110.104 29.5691 109.074 28.7184 108.033 27.8453L107.786 27.6438C105.032 25.3491 102.422 23.1775 99.6227 21.185C86.5206 11.9279 72.4443 6.74522 57.7857 5.78256C49.6221 5.25646 42.3543 6.30867 35.5345 9.01753C34.3139 9.49886 33.1381 10.0585 32.0295 10.6854C24.5938 14.7935 19.5097 21.7 17.8748 30.0952C15.9262 40.024 19.1514 50.4341 26.2959 57.2958C34.6611 65.3328 44.93 70.4819 54.7285 75.0825C59.387 77.2541 64.0791 79.4033 68.7712 81.5413L69.7343 81.9778C76.8229 85.2128 84.1578 88.5485 91.2463 92.0185C102.512 97.537 111.191 104.119 117.764 112.122C123.33 118.917 126.364 128.252 126.364 137.666L126.376 137.644Z" fill="url(#paint7_linear_2431_224)"/>
<path d="M543.08 4.11551H530.202V178.132H543.08V4.11551Z" fill="url(#paint8_linear_2431_224)"/>
<path d="M543.08 4.11551H530.202V178.132H543.08V4.11551Z" fill="url(#paint9_linear_2431_224)"/>
<path d="M477.93 136.499C462.914 161.427 438.424 178.564 407.193 178.564C372.535 178.564 344.126 155.662 330.565 126.123C332.379 123.157 332.704 122.508 334.462 119.43C355.223 82.9285 371.998 40.1814 401.818 20.0336C415.849 10.5529 434.18 9.80293 448.748 18.4441C458.647 24.3206 467.259 32.4357 475.971 45.487H482.924C472.264 28.4397 456.005 15.2652 436.744 8.51571C425.513 4.57568 413.497 2.90789 401.403 3.7138C376.152 5.49353 352.401 18.2762 335.671 39.3643C335.627 39.4091 335.604 39.4315 335.593 39.4651C333.264 42.3865 331.069 45.4758 329.042 48.7107C313.5 18.9142 281.832 -1.17765 245.629 0.0536052C198.597 1.63185 160.278 39.6665 158.363 86.6558C156.504 132.302 188.497 170.818 231.307 179.179C258.753 185.313 279.267 179.84 295.773 167.706C305.179 160.8 313.287 151.745 320.621 141.436C322.794 138.38 324.921 135.223 326.971 131.966C341.483 161.595 371.953 182 407.193 182C440.227 182 469.364 163.52 484.783 136.511H477.93V136.499ZM323.97 57.6765C307.106 87.5961 287.711 138.201 258.014 162.277C243.423 174.109 223.289 175.698 206.85 166.654C179.494 151.588 164.477 122.194 165.138 88.6259C166.034 43.5506 201.419 4.64284 246.513 3.51232C281.709 2.62805 311.025 25.2049 325.537 54.5983L323.981 57.6765H323.97Z" fill="url(#paint10_linear_2431_224)"/>
<path d="M477.93 136.499C462.914 161.427 438.424 178.564 407.193 178.564C372.535 178.564 344.126 155.662 330.565 126.123C332.379 123.157 332.704 122.508 334.462 119.43C355.223 82.9285 371.998 40.1814 401.818 20.0336C415.849 10.5529 434.18 9.80293 448.748 18.4441C458.647 24.3206 467.259 32.4357 475.971 45.487H482.924C472.264 28.4397 456.005 15.2652 436.744 8.51571C425.513 4.57568 413.497 2.90789 401.403 3.7138C376.152 5.49353 352.401 18.2762 335.671 39.3643C335.627 39.4091 335.604 39.4315 335.593 39.4651C333.264 42.3865 331.069 45.4758 329.042 48.7107C313.5 18.9142 281.832 -1.17765 245.629 0.0536052C198.597 1.63185 160.278 39.6665 158.363 86.6558C156.504 132.302 188.497 170.818 231.307 179.179C258.753 185.313 279.267 179.84 295.773 167.706C305.179 160.8 313.287 151.745 320.621 141.436C322.794 138.38 324.921 135.223 326.971 131.966C341.483 161.595 371.953 182 407.193 182C440.227 182 469.364 163.52 484.783 136.511H477.93V136.499ZM323.97 57.6765C307.106 87.5961 287.711 138.201 258.014 162.277C243.423 174.109 223.289 175.698 206.85 166.654C179.494 151.588 164.477 122.194 165.138 88.6259C166.034 43.5506 201.419 4.64284 246.513 3.51232C281.709 2.62805 311.025 25.2049 325.537 54.5983L323.981 57.6765H323.97Z" fill="url(#paint11_linear_2431_224)"/>
</g>
<defs>
<filter id="filter0_d_2431_224" x="0" y="0" width="1049" height="190" filterUnits="userSpaceOnUse" color-interpolation-filters="sRGB">
<feFlood flood-opacity="0" result="BackgroundImageFix"/>
<feColorMatrix in="SourceAlpha" type="matrix" values="0 0 0 0 0 0 0 0 0 0 0 0 0 0 0 0 0 0 127 0" result="hardAlpha"/>
<feOffset dy="4"/>
<feGaussianBlur stdDeviation="2"/>
<feComposite in2="hardAlpha" operator="out"/>
<feColorMatrix type="matrix" values="0 0 0 0 1 0 0 0 0 1 0 0 0 0 1 0 0 0 0.25 0"/>
<feBlend mode="normal" in2="BackgroundImageFix" result="effect1_dropShadow_2431_224"/>
<feBlend mode="normal" in="SourceGraphic" in2="effect1_dropShadow_2431_224" result="shape"/>
</filter>
<linearGradient id="paint0_linear_2431_224" x1="982.697" y1="100.903" x2="26.8715" y2="66.5832" gradientUnits="userSpaceOnUse">
<stop stop-color="#F9783E"/>
<stop offset="1" stop-color="#895BF6"/>
</linearGradient>
<linearGradient id="paint1_linear_2431_224" x1="524.5" y1="8.52314e-08" x2="524" y2="198" gradientUnits="userSpaceOnUse">
<stop offset="0.0687066" stop-color="#B7B2FF"/>
<stop offset="0.356397" stop-color="#895BF6"/>
<stop offset="0.691472" stop-color="#0F1A97"/>
<stop offset="0.947115" stop-color="#0A0A0A"/>
</linearGradient>
<linearGradient id="paint2_linear_2431_224" x1="982.697" y1="100.903" x2="26.8715" y2="66.5832" gradientUnits="userSpaceOnUse">
<stop stop-color="#F9783E"/>
<stop offset="1" stop-color="#895BF6"/>
</linearGradient>
<linearGradient id="paint3_linear_2431_224" x1="524.5" y1="8.52314e-08" x2="524" y2="198" gradientUnits="userSpaceOnUse">
<stop offset="0.0687066" stop-color="#B7B2FF"/>
<stop offset="0.356397" stop-color="#895BF6"/>
<stop offset="0.691472" stop-color="#0F1A97"/>
<stop offset="0.947115" stop-color="#0A0A0A"/>
</linearGradient>
<linearGradient id="paint4_linear_2431_224" x1="982.697" y1="100.903" x2="26.8715" y2="66.5832" gradientUnits="userSpaceOnUse">
<stop stop-color="#F9783E"/>
<stop offset="1" stop-color="#895BF6"/>
</linearGradient>
<linearGradient id="paint5_linear_2431_224" x1="524.5" y1="8.52314e-08" x2="524" y2="198" gradientUnits="userSpaceOnUse">
<stop offset="0.0687066" stop-color="#B7B2FF"/>
<stop offset="0.356397" stop-color="#895BF6"/>
<stop offset="0.691472" stop-color="#0F1A97"/>
<stop offset="0.947115" stop-color="#0A0A0A"/>
</linearGradient>
<linearGradient id="paint6_linear_2431_224" x1="982.697" y1="100.903" x2="26.8715" y2="66.5832" gradientUnits="userSpaceOnUse">
<stop stop-color="#F9783E"/>
<stop offset="1" stop-color="#895BF6"/>
</linearGradient>
<linearGradient id="paint7_linear_2431_224" x1="524.5" y1="8.52314e-08" x2="524" y2="198" gradientUnits="userSpaceOnUse">
<stop offset="0.0687066" stop-color="#B7B2FF"/>
<stop offset="0.356397" stop-color="#895BF6"/>
<stop offset="0.691472" stop-color="#0F1A97"/>
<stop offset="0.947115" stop-color="#0A0A0A"/>
</linearGradient>
<linearGradient id="paint8_linear_2431_224" x1="982.697" y1="100.903" x2="26.8715" y2="66.5832" gradientUnits="userSpaceOnUse">
<stop stop-color="#F9783E"/>
<stop offset="1" stop-color="#895BF6"/>
</linearGradient>
<linearGradient id="paint9_linear_2431_224" x1="524.5" y1="8.52314e-08" x2="524" y2="198" gradientUnits="userSpaceOnUse">
<stop offset="0.0687066" stop-color="#B7B2FF"/>
<stop offset="0.356397" stop-color="#895BF6"/>
<stop offset="0.691472" stop-color="#0F1A97"/>
<stop offset="0.947115" stop-color="#0A0A0A"/>
</linearGradient>
<linearGradient id="paint10_linear_2431_224" x1="982.697" y1="100.903" x2="26.8715" y2="66.5832" gradientUnits="userSpaceOnUse">
<stop stop-color="#F9783E"/>
<stop offset="1" stop-color="#895BF6"/>
</linearGradient>
<linearGradient id="paint11_linear_2431_224" x1="524.5" y1="8.52314e-08" x2="524" y2="198" gradientUnits="userSpaceOnUse">
<stop offset="0.0687066" stop-color="#B7B2FF"/>
<stop offset="0.356397" stop-color="#895BF6"/>
<stop offset="0.691472" stop-color="#0F1A97"/>
<stop offset="0.947115" stop-color="#0A0A0A"/>
</linearGradient>
</defs>
</svg>
