<svg width="158" height="28" viewBox="0 0 158 28" fill="none" xmlns="http://www.w3.org/2000/svg">
<g filter="url(#filter0_i_4010_2)">
<path d="M158 2.26116C157.725 2.17111 157.371 2.05559 157.184 1.99782C156.508 1.78375 155.816 1.60876 155.005 1.45076C153.234 1.10927 151.455 1.0668 149.922 1.05491H149.5C149.291 1.05321 149.114 1.05321 148.96 1.05321C148.072 1.05321 148.05 1.0753 147.984 1.14495L147.931 1.20102V1.27917C147.933 1.35902 147.931 24.6617 147.931 27.0436H145.961C145.961 24.485 145.963 1.33523 145.961 1.27747V1.20102L145.909 1.14495C145.844 1.07699 145.824 1.05321 144.952 1.05321C144.785 1.05321 144.586 1.05321 144.35 1.05491H143.944C142.416 1.0668 140.635 1.10927 138.865 1.45076C138.053 1.61046 137.361 1.78206 136.686 1.99782C136.499 2.05559 136.146 2.17281 135.87 2.26116C135.906 2.16941 135.94 2.08107 135.978 1.99103C136.124 1.62745 136.251 1.30125 136.36 0.958069C136.455 0.65056 136.615 0.594495 136.895 0.594495C139.571 0.597893 142.273 0.60299 144.952 0.60299H148.96C151.625 0.60299 154.315 0.599592 156.979 0.594495C157.256 0.594495 157.414 0.65056 157.51 0.958069C157.618 1.29956 157.747 1.62745 157.893 1.98933C157.929 2.07937 157.964 2.16941 158 2.26116Z" fill="url(#paint0_linear_4010_2)"/>
<path d="M158 2.26116C157.725 2.17111 157.371 2.05559 157.184 1.99782C156.508 1.78375 155.816 1.60876 155.005 1.45076C153.234 1.10927 151.455 1.0668 149.922 1.05491H149.5C149.291 1.05321 149.114 1.05321 148.96 1.05321C148.072 1.05321 148.05 1.0753 147.984 1.14495L147.931 1.20102V1.27917C147.933 1.35902 147.931 24.6617 147.931 27.0436H145.961C145.961 24.485 145.963 1.33523 145.961 1.27747V1.20102L145.909 1.14495C145.844 1.07699 145.824 1.05321 144.952 1.05321C144.785 1.05321 144.586 1.05321 144.35 1.05491H143.944C142.416 1.0668 140.635 1.10927 138.865 1.45076C138.053 1.61046 137.361 1.78206 136.686 1.99782C136.499 2.05559 136.146 2.17281 135.87 2.26116C135.906 2.16941 135.94 2.08107 135.978 1.99103C136.124 1.62745 136.251 1.30125 136.36 0.958069C136.455 0.65056 136.615 0.594495 136.895 0.594495C139.571 0.597893 142.273 0.60299 144.952 0.60299H148.96C151.625 0.60299 154.315 0.599592 156.979 0.594495C157.256 0.594495 157.414 0.65056 157.51 0.958069C157.618 1.29956 157.747 1.62745 157.893 1.98933C157.929 2.07937 157.964 2.16941 158 2.26116Z" fill="url(#paint1_linear_4010_2)"/>
<path d="M106.966 25.4735C106.807 25.9492 106.547 26.7222 106.46 26.9856C106.445 27.0314 106.36 27.0552 106.202 27.0552H90.1229V0.606091H93.1993C97.4127 0.606091 101.767 0.606091 106.059 0.595897C106.372 0.595897 106.485 0.682543 106.591 1.00704L106.885 1.90748C106.113 1.64754 104.138 1.16844 100.047 1.16844C98.6705 1.16844 94.7663 1.13276 93.0973 1.11747C92.6724 1.11407 92.4055 1.11238 92.38 1.11238H92.1863V12.9115H97.4246C99.8874 12.9421 101.154 12.5683 101.679 12.3526V14.0124C101.164 13.8307 99.901 13.5197 97.4212 13.5826C96.1193 13.6149 93.6786 13.5928 92.7591 13.5843C92.3529 13.5809 92.3511 13.5809 92.3325 13.5843L92.1659 13.6064V26.5234H92.3596C92.414 26.5234 99.0546 26.4878 101.06 26.4317C102.833 26.3807 104.917 26.2261 106.968 25.4718L106.966 25.4735Z" fill="url(#paint2_linear_4010_2)"/>
<path d="M106.966 25.4735C106.807 25.9492 106.547 26.7222 106.46 26.9856C106.445 27.0314 106.36 27.0552 106.202 27.0552H90.1229V0.606091H93.1993C97.4127 0.606091 101.767 0.606091 106.059 0.595897C106.372 0.595897 106.485 0.682543 106.591 1.00704L106.885 1.90748C106.113 1.64754 104.138 1.16844 100.047 1.16844C98.6705 1.16844 94.7663 1.13276 93.0973 1.11747C92.6724 1.11407 92.4055 1.11238 92.38 1.11238H92.1863V12.9115H97.4246C99.8874 12.9421 101.154 12.5683 101.679 12.3526V14.0124C101.164 13.8307 99.901 13.5197 97.4212 13.5826C96.1193 13.6149 93.6786 13.5928 92.7591 13.5843C92.3529 13.5809 92.3511 13.5809 92.3325 13.5843L92.1659 13.6064V26.5234H92.3596C92.414 26.5234 99.0546 26.4878 101.06 26.4317C102.833 26.3807 104.917 26.2261 106.968 25.4718L106.966 25.4735Z" fill="url(#paint3_linear_4010_2)"/>
<path d="M132.12 0.622919C130.934 2.37113 124.966 11.1581 123.092 14.0802L122.752 14.6103C122.604 14.8414 122.517 15.1506 122.517 15.436C122.502 19.4982 122.502 23.1441 122.517 26.5811V27.033H120.438V24.4081C120.438 21.559 120.438 18.6147 120.428 15.7214C120.428 15.4496 120.335 15.1353 120.187 14.9008C117.712 10.9967 115.209 7.06191 112.868 3.39559L111.112 0.634812H113.516C113.606 0.634812 113.743 0.850578 113.817 0.964407C116.155 4.63072 121.514 13.8951 121.569 13.9885L121.727 14.262L121.9 13.9987C121.915 13.9749 122.459 13.1543 123.272 11.9328C125.801 8.11865 130.509 1.02047 130.652 0.799609C130.76 0.626317 130.818 0.624618 130.82 0.624618C131.155 0.62122 131.484 0.62122 131.841 0.624618H132.122L132.12 0.622919Z" fill="url(#paint4_linear_4010_2)"/>
<path d="M132.12 0.622919C130.934 2.37113 124.966 11.1581 123.092 14.0802L122.752 14.6103C122.604 14.8414 122.517 15.1506 122.517 15.436C122.502 19.4982 122.502 23.1441 122.517 26.5811V27.033H120.438V24.4081C120.438 21.559 120.438 18.6147 120.428 15.7214C120.428 15.4496 120.335 15.1353 120.187 14.9008C117.712 10.9967 115.209 7.06191 112.868 3.39559L111.112 0.634812H113.516C113.606 0.634812 113.743 0.850578 113.817 0.964407C116.155 4.63072 121.514 13.8951 121.569 13.9885L121.727 14.262L121.9 13.9987C121.915 13.9749 122.459 13.1543 123.272 11.9328C125.801 8.11865 130.509 1.02047 130.652 0.799609C130.76 0.626317 130.818 0.624618 130.82 0.624618C131.155 0.62122 131.484 0.62122 131.841 0.624618H132.122L132.12 0.622919Z" fill="url(#paint5_linear_4010_2)"/>
<path d="M18.5738 20.8912C18.5738 21.4264 18.5092 21.9649 18.375 22.4848C17.8906 24.3774 16.5852 25.8402 14.6952 26.603C14.4318 26.7101 14.1615 26.8069 13.8896 26.8902C12.7474 27.252 11.5389 27.4287 10.2183 27.4287C9.66253 27.4287 9.07785 27.3964 8.48637 27.3336C5.65815 27.0329 2.98119 26.1019 0.528592 24.5711C0.435111 24.5133 0.34163 24.4522 0.248149 24.391L0.0492899 24.2568C0.0339931 24.2466 0.0220955 24.2381 0 24.2194L1.51439 22.6071L1.84922 22.9163C4.61966 25.4359 7.8354 26.7457 11.4115 26.8018C12.2137 26.8103 12.9989 26.6914 13.7519 26.4467C14.1904 26.3057 14.6204 26.1205 15.0351 25.8912C16.2861 25.1997 17.124 24.1107 17.3926 22.8212C17.6645 21.5215 17.3331 20.1759 16.456 19.0343C15.6776 18.0166 14.6034 17.1671 13.1689 16.4349C11.9945 15.8334 10.7758 15.2643 9.59794 14.7121L9.07275 14.4675C8.87049 14.3741 8.66993 14.2806 8.47107 14.1855L8.21782 14.0648C6.67284 13.3428 5.07856 12.5936 3.70524 11.5096C2.31323 10.4104 1.4855 9.20078 1.17956 7.80934C0.582981 5.05876 1.71835 2.56131 4.05367 1.27012C4.4072 1.07474 4.79132 0.906543 5.19924 0.768929C7.50737 -0.0057889 9.94467 0.00270575 12.8681 0.794413C14.3383 1.19197 15.7677 1.81378 17.1172 2.64456C17.2124 2.70063 17.3076 2.76349 17.4079 2.82975L17.6135 2.96566L16.2657 4.62043C16.1042 4.48791 15.9478 4.35879 15.7898 4.22628L15.7524 4.19569C15.3343 3.84741 14.9383 3.51782 14.5133 3.2154C12.5247 1.81038 10.3883 1.02377 8.16343 0.877661C6.92439 0.797811 5.82131 0.957511 4.78622 1.36866C4.60096 1.44171 4.4225 1.52666 4.25423 1.6218C3.12566 2.24531 2.35402 3.29356 2.10587 4.56776C1.81013 6.07472 2.29963 7.65474 3.38401 8.69619C4.65365 9.91603 6.21223 10.6975 7.69943 11.3958C8.40648 11.7254 9.11864 12.0516 9.83079 12.3761L9.97696 12.4424C11.0528 12.9334 12.1661 13.4396 13.242 13.9663C14.9519 14.8039 16.2691 15.8029 17.2668 17.0176C18.1115 18.0489 18.5721 19.4658 18.5721 20.8946L18.5738 20.8912Z" fill="url(#paint6_linear_4010_2)"/>
<path d="M18.5738 20.8912C18.5738 21.4264 18.5092 21.9649 18.375 22.4848C17.8906 24.3774 16.5852 25.8402 14.6952 26.603C14.4318 26.7101 14.1615 26.8069 13.8896 26.8902C12.7474 27.252 11.5389 27.4287 10.2183 27.4287C9.66253 27.4287 9.07785 27.3964 8.48637 27.3336C5.65815 27.0329 2.98119 26.1019 0.528592 24.5711C0.435111 24.5133 0.34163 24.4522 0.248149 24.391L0.0492899 24.2568C0.0339931 24.2466 0.0220955 24.2381 0 24.2194L1.51439 22.6071L1.84922 22.9163C4.61966 25.4359 7.8354 26.7457 11.4115 26.8018C12.2137 26.8103 12.9989 26.6914 13.7519 26.4467C14.1904 26.3057 14.6204 26.1205 15.0351 25.8912C16.2861 25.1997 17.124 24.1107 17.3926 22.8212C17.6645 21.5215 17.3331 20.1759 16.456 19.0343C15.6776 18.0166 14.6034 17.1671 13.1689 16.4349C11.9945 15.8334 10.7758 15.2643 9.59794 14.7121L9.07275 14.4675C8.87049 14.3741 8.66993 14.2806 8.47107 14.1855L8.21782 14.0648C6.67284 13.3428 5.07856 12.5936 3.70524 11.5096C2.31323 10.4104 1.4855 9.20078 1.17956 7.80934C0.582981 5.05876 1.71835 2.56131 4.05367 1.27012C4.4072 1.07474 4.79132 0.906543 5.19924 0.768929C7.50737 -0.0057889 9.94467 0.00270575 12.8681 0.794413C14.3383 1.19197 15.7677 1.81378 17.1172 2.64456C17.2124 2.70063 17.3076 2.76349 17.4079 2.82975L17.6135 2.96566L16.2657 4.62043C16.1042 4.48791 15.9478 4.35879 15.7898 4.22628L15.7524 4.19569C15.3343 3.84741 14.9383 3.51782 14.5133 3.2154C12.5247 1.81038 10.3883 1.02377 8.16343 0.877661C6.92439 0.797811 5.82131 0.957511 4.78622 1.36866C4.60096 1.44171 4.4225 1.52666 4.25423 1.6218C3.12566 2.24531 2.35402 3.29356 2.10587 4.56776C1.81013 6.07472 2.29963 7.65474 3.38401 8.69619C4.65365 9.91603 6.21223 10.6975 7.69943 11.3958C8.40648 11.7254 9.11864 12.0516 9.83079 12.3761L9.97696 12.4424C11.0528 12.9334 12.1661 13.4396 13.242 13.9663C14.9519 14.8039 16.2691 15.8029 17.2668 17.0176C18.1115 18.0489 18.5721 19.4658 18.5721 20.8946L18.5738 20.8912Z" fill="url(#paint7_linear_4010_2)"/>
<path d="M81.82 0.624641H79.8654V27.0364H81.82V0.624641Z" fill="url(#paint8_linear_4010_2)"/>
<path d="M81.82 0.624641H79.8654V27.0364H81.82V0.624641Z" fill="url(#paint9_linear_4010_2)"/>
<path d="M71.9318 20.7175C69.6526 24.5009 65.9356 27.1019 61.1954 27.1019C55.9352 27.1019 51.6233 23.626 49.5651 19.1426C49.8405 18.6924 49.8898 18.5939 50.1566 18.1267C53.3076 12.5866 55.8536 6.09862 60.3796 3.04064C62.5092 1.60169 65.2915 1.48786 67.5026 2.7994C69.0051 3.69131 70.312 4.923 71.6343 6.90389H72.6898C71.0718 4.3165 68.604 2.31691 65.6807 1.29249C63.976 0.694484 62.1523 0.441351 60.3167 0.56367C56.4842 0.833792 52.8793 2.77391 50.3401 5.9746C50.3333 5.9814 50.3299 5.9848 50.3282 5.98989C49.9747 6.4333 49.6416 6.90219 49.334 7.39317C46.975 2.87075 42.1685 -0.178741 36.6737 0.00813604C29.5354 0.247678 23.7194 6.02047 23.4288 13.1524C23.1467 20.0804 28.0024 25.9263 34.4999 27.1953C38.6656 28.1263 41.7793 27.2956 44.2845 25.454C45.7122 24.4058 46.9427 23.0314 48.0559 21.4667C48.3856 21.0029 48.7085 20.5238 49.0196 20.0294C51.2222 24.5264 55.8468 27.6234 61.1954 27.6234C66.2092 27.6234 70.6316 24.8186 72.9719 20.7192H71.9318V20.7175ZM48.5641 8.75397C46.0045 13.2951 43.0608 20.9757 38.5535 24.63C36.3389 26.4257 33.283 26.667 30.788 25.2943C26.6359 23.0076 24.3568 18.5463 24.4571 13.4514C24.593 6.60999 29.9637 0.704677 36.808 0.53309C42.1498 0.398879 46.5993 3.82552 48.802 8.28678L48.5658 8.75397H48.5641Z" fill="url(#paint10_linear_4010_2)"/>
<path d="M71.9318 20.7175C69.6526 24.5009 65.9356 27.1019 61.1954 27.1019C55.9352 27.1019 51.6233 23.626 49.5651 19.1426C49.8405 18.6924 49.8898 18.5939 50.1566 18.1267C53.3076 12.5866 55.8536 6.09862 60.3796 3.04064C62.5092 1.60169 65.2915 1.48786 67.5026 2.7994C69.0051 3.69131 70.312 4.923 71.6343 6.90389H72.6898C71.0718 4.3165 68.604 2.31691 65.6807 1.29249C63.976 0.694484 62.1523 0.441351 60.3167 0.56367C56.4842 0.833792 52.8793 2.77391 50.3401 5.9746C50.3333 5.9814 50.3299 5.9848 50.3282 5.98989C49.9747 6.4333 49.6416 6.90219 49.334 7.39317C46.975 2.87075 42.1685 -0.178741 36.6737 0.00813604C29.5354 0.247678 23.7194 6.02047 23.4288 13.1524C23.1467 20.0804 28.0024 25.9263 34.4999 27.1953C38.6656 28.1263 41.7793 27.2956 44.2845 25.454C45.7122 24.4058 46.9427 23.0314 48.0559 21.4667C48.3856 21.0029 48.7085 20.5238 49.0196 20.0294C51.2222 24.5264 55.8468 27.6234 61.1954 27.6234C66.2092 27.6234 70.6316 24.8186 72.9719 20.7192H71.9318V20.7175ZM48.5641 8.75397C46.0045 13.2951 43.0608 20.9757 38.5535 24.63C36.3389 26.4257 33.283 26.667 30.788 25.2943C26.6359 23.0076 24.3568 18.5463 24.4571 13.4514C24.593 6.60999 29.9637 0.704677 36.808 0.53309C42.1498 0.398879 46.5993 3.82552 48.802 8.28678L48.5658 8.75397H48.5641Z" fill="url(#paint11_linear_4010_2)"/>
</g>
<g filter="url(#filter1_i_4010_2)">
<path d="M71.9326 20.7175C69.6535 24.5009 65.9365 27.1019 61.1963 27.1019C55.9361 27.1019 51.6242 23.626 49.566 19.1426C49.8413 18.6924 49.8906 18.5939 50.1574 18.1267C53.3085 12.5866 55.8545 6.09862 60.3805 3.04064C62.5101 1.60169 65.2923 1.48786 67.5035 2.7994C69.0059 3.69131 70.3129 4.923 71.6352 6.90389H72.6906C71.0726 4.3165 68.6048 2.31691 65.6815 1.29249C63.9768 0.694484 62.1532 0.441351 60.3176 0.56367C56.485 0.833792 52.8802 2.77391 50.341 5.9746C50.3342 5.9814 50.3308 5.9848 50.3291 5.98989C49.9756 6.4333 49.6425 6.90219 49.3348 7.39317C46.9758 2.87075 42.1694 -0.178741 36.6746 0.00813604C29.5363 0.247678 23.7203 6.02047 23.4297 13.1524C23.1475 20.0804 28.0033 25.9263 34.5008 27.1953C38.6665 28.1263 41.7802 27.2956 44.2854 25.454C45.713 24.4058 46.9435 23.0314 48.0567 21.4667C48.3865 21.0029 48.7094 20.5238 49.0204 20.0294C51.2231 24.5264 55.8477 27.6234 61.1963 27.6234C66.2101 27.6234 70.6324 24.8186 72.9728 20.7192H71.9326V20.7175ZM48.5649 8.75397C46.0053 13.2951 43.0616 20.9757 38.5543 24.63C36.3398 26.4257 33.2839 26.667 30.7889 25.2943C26.6368 23.0076 24.3576 18.5463 24.4579 13.4514C24.5939 6.60999 29.9646 0.704677 36.8089 0.53309C42.1507 0.398879 46.6002 3.82552 48.8029 8.28678L48.5666 8.75397H48.5649Z" fill="url(#paint12_linear_4010_2)"/>
<path d="M71.9326 20.7175C69.6535 24.5009 65.9365 27.1019 61.1963 27.1019C55.9361 27.1019 51.6242 23.626 49.566 19.1426C49.8413 18.6924 49.8906 18.5939 50.1574 18.1267C53.3085 12.5866 55.8545 6.09862 60.3805 3.04064C62.5101 1.60169 65.2923 1.48786 67.5035 2.7994C69.0059 3.69131 70.3129 4.923 71.6352 6.90389H72.6906C71.0726 4.3165 68.6048 2.31691 65.6815 1.29249C63.9768 0.694484 62.1532 0.441351 60.3176 0.56367C56.485 0.833792 52.8802 2.77391 50.341 5.9746C50.3342 5.9814 50.3308 5.9848 50.3291 5.98989C49.9756 6.4333 49.6425 6.90219 49.3348 7.39317C46.9758 2.87075 42.1694 -0.178741 36.6746 0.00813604C29.5363 0.247678 23.7203 6.02047 23.4297 13.1524C23.1475 20.0804 28.0033 25.9263 34.5008 27.1953C38.6665 28.1263 41.7802 27.2956 44.2854 25.454C45.713 24.4058 46.9435 23.0314 48.0567 21.4667C48.3865 21.0029 48.7094 20.5238 49.0204 20.0294C51.2231 24.5264 55.8477 27.6234 61.1963 27.6234C66.2101 27.6234 70.6324 24.8186 72.9728 20.7192H71.9326V20.7175ZM48.5649 8.75397C46.0053 13.2951 43.0616 20.9757 38.5543 24.63C36.3398 26.4257 33.2839 26.667 30.7889 25.2943C26.6368 23.0076 24.3576 18.5463 24.4579 13.4514C24.5939 6.60999 29.9646 0.704677 36.8089 0.53309C42.1507 0.398879 46.6002 3.82552 48.8029 8.28678L48.5666 8.75397H48.5649Z" fill="url(#paint13_linear_4010_2)"/>
</g>
<defs>
<filter id="filter0_i_4010_2" x="0" y="0" width="158" height="28.2302" filterUnits="userSpaceOnUse" color-interpolation-filters="sRGB">
<feFlood flood-opacity="0" result="BackgroundImageFix"/>
<feBlend mode="normal" in="SourceGraphic" in2="BackgroundImageFix" result="shape"/>
<feColorMatrix in="SourceAlpha" type="matrix" values="0 0 0 0 0 0 0 0 0 0 0 0 0 0 0 0 0 0 127 0" result="hardAlpha"/>
<feOffset dy="0.607109"/>
<feGaussianBlur stdDeviation="0.303554"/>
<feComposite in2="hardAlpha" operator="arithmetic" k2="-1" k3="1"/>
<feColorMatrix type="matrix" values="0 0 0 0 0.19285 0 0 0 0 0.0166876 0 0 0 0 0.545174 0 0 0 0.25 0"/>
<feBlend mode="normal" in2="shape" result="effect1_innerShadow_4010_2"/>
</filter>
<filter id="filter1_i_4010_2" x="23.418" y="0" width="49.5547" height="28.2302" filterUnits="userSpaceOnUse" color-interpolation-filters="sRGB">
<feFlood flood-opacity="0" result="BackgroundImageFix"/>
<feBlend mode="normal" in="SourceGraphic" in2="BackgroundImageFix" result="shape"/>
<feColorMatrix in="SourceAlpha" type="matrix" values="0 0 0 0 0 0 0 0 0 0 0 0 0 0 0 0 0 0 127 0" result="hardAlpha"/>
<feOffset dy="0.607109"/>
<feGaussianBlur stdDeviation="0.303554"/>
<feComposite in2="hardAlpha" operator="arithmetic" k2="-1" k3="1"/>
<feColorMatrix type="matrix" values="0 0 0 0 0.19285 0 0 0 0 0.0166876 0 0 0 0 0.545174 0 0 0 0.25 0"/>
<feBlend mode="normal" in2="shape" result="effect1_innerShadow_4010_2"/>
</filter>
<linearGradient id="paint0_linear_4010_2" x1="148.544" y1="15.3148" x2="3.47136" y2="10.1058" gradientUnits="userSpaceOnUse">
<stop stop-color="#F9783E"/>
<stop offset="1" stop-color="#895BF6"/>
</linearGradient>
<linearGradient id="paint1_linear_4010_2" x1="79" y1="1.29362e-08" x2="78.9241" y2="30.0519" gradientUnits="userSpaceOnUse">
<stop offset="0.0687066" stop-color="#B7B2FF"/>
<stop offset="0.356397" stop-color="#895BF6"/>
<stop offset="0.691472" stop-color="#0F1A97"/>
<stop offset="0.947115" stop-color="#0A0A0A"/>
</linearGradient>
<linearGradient id="paint2_linear_4010_2" x1="148.544" y1="15.3148" x2="3.47136" y2="10.1058" gradientUnits="userSpaceOnUse">
<stop stop-color="#F9783E"/>
<stop offset="1" stop-color="#895BF6"/>
</linearGradient>
<linearGradient id="paint3_linear_4010_2" x1="79" y1="1.29362e-08" x2="78.9241" y2="30.0519" gradientUnits="userSpaceOnUse">
<stop offset="0.0687066" stop-color="#B7B2FF"/>
<stop offset="0.356397" stop-color="#895BF6"/>
<stop offset="0.691472" stop-color="#0F1A97"/>
<stop offset="0.947115" stop-color="#0A0A0A"/>
</linearGradient>
<linearGradient id="paint4_linear_4010_2" x1="148.544" y1="15.3148" x2="3.47136" y2="10.1058" gradientUnits="userSpaceOnUse">
<stop stop-color="#F9783E"/>
<stop offset="1" stop-color="#895BF6"/>
</linearGradient>
<linearGradient id="paint5_linear_4010_2" x1="79" y1="1.29362e-08" x2="78.9241" y2="30.0519" gradientUnits="userSpaceOnUse">
<stop offset="0.0687066" stop-color="#B7B2FF"/>
<stop offset="0.356397" stop-color="#895BF6"/>
<stop offset="0.691472" stop-color="#0F1A97"/>
<stop offset="0.947115" stop-color="#0A0A0A"/>
</linearGradient>
<linearGradient id="paint6_linear_4010_2" x1="148.544" y1="15.3148" x2="3.47136" y2="10.1058" gradientUnits="userSpaceOnUse">
<stop stop-color="#F9783E"/>
<stop offset="1" stop-color="#895BF6"/>
</linearGradient>
<linearGradient id="paint7_linear_4010_2" x1="79" y1="1.29362e-08" x2="78.9241" y2="30.0519" gradientUnits="userSpaceOnUse">
<stop offset="0.0687066" stop-color="#B7B2FF"/>
<stop offset="0.356397" stop-color="#895BF6"/>
<stop offset="0.691472" stop-color="#0F1A97"/>
<stop offset="0.947115" stop-color="#0A0A0A"/>
</linearGradient>
<linearGradient id="paint8_linear_4010_2" x1="148.544" y1="15.3148" x2="3.47136" y2="10.1058" gradientUnits="userSpaceOnUse">
<stop stop-color="#F9783E"/>
<stop offset="1" stop-color="#895BF6"/>
</linearGradient>
<linearGradient id="paint9_linear_4010_2" x1="79" y1="1.29362e-08" x2="78.9241" y2="30.0519" gradientUnits="userSpaceOnUse">
<stop offset="0.0687066" stop-color="#B7B2FF"/>
<stop offset="0.356397" stop-color="#895BF6"/>
<stop offset="0.691472" stop-color="#0F1A97"/>
<stop offset="0.947115" stop-color="#0A0A0A"/>
</linearGradient>
<linearGradient id="paint10_linear_4010_2" x1="148.544" y1="15.3148" x2="3.47136" y2="10.1058" gradientUnits="userSpaceOnUse">
<stop stop-color="#F9783E"/>
<stop offset="1" stop-color="#895BF6"/>
</linearGradient>
<linearGradient id="paint11_linear_4010_2" x1="79" y1="1.29362e-08" x2="78.9241" y2="30.0519" gradientUnits="userSpaceOnUse">
<stop offset="0.0687066" stop-color="#B7B2FF"/>
<stop offset="0.356397" stop-color="#895BF6"/>
<stop offset="0.691472" stop-color="#0F1A97"/>
<stop offset="0.947115" stop-color="#0A0A0A"/>
</linearGradient>
<linearGradient id="paint12_linear_4010_2" x1="79" y1="4.75252e-09" x2="78.9241" y2="30.0519" gradientUnits="userSpaceOnUse">
<stop offset="0.0687066" stop-color="#B7B2FF"/>
<stop offset="0.356397" stop-color="#895BF6"/>
<stop offset="0.691472" stop-color="#0F1A97"/>
<stop offset="0.947115" stop-color="#0A0A0A"/>
</linearGradient>
<linearGradient id="paint13_linear_4010_2" x1="23.418" y1="0" x2="74.248" y2="2.81782" gradientUnits="userSpaceOnUse">
<stop stop-color="#895BF6"/>
<stop offset="1" stop-color="#F9783E"/>
</linearGradient>
</defs>
</svg>
