<svg width="138" height="26" viewBox="0 0 138 26" fill="none" xmlns="http://www.w3.org/2000/svg">
<path d="M137.035 2.10903C136.797 2.02504 136.49 1.91729 136.328 1.86341C135.741 1.66375 135.141 1.50053 134.438 1.35316C132.902 1.03464 131.359 0.995028 130.029 0.983936H129.663C129.482 0.982351 129.329 0.982351 129.194 0.982351C128.425 0.982351 128.406 1.00295 128.348 1.06792L128.303 1.12021V1.19311C128.304 1.26759 128.303 23.0025 128.303 25.2242H126.594C126.594 22.8377 126.596 1.2454 126.594 1.19152V1.12021L126.548 1.06792C126.492 1.00454 126.475 0.982351 125.718 0.982351C125.574 0.982351 125.402 0.982351 125.197 0.983936H124.844C123.519 0.995028 121.974 1.03464 120.44 1.35316C119.735 1.50211 119.135 1.66216 118.55 1.86341C118.388 1.91729 118.081 2.02663 117.842 2.10903C117.873 2.02346 117.903 1.94106 117.935 1.85707C118.062 1.51796 118.172 1.21371 118.267 0.893611C118.349 0.606792 118.488 0.554498 118.731 0.554498C121.051 0.557668 123.395 0.562422 125.718 0.562422H129.194C131.506 0.562422 133.839 0.559252 136.149 0.554498C136.39 0.554498 136.527 0.606792 136.611 0.893611C136.704 1.21212 136.816 1.51796 136.943 1.85549C136.973 1.93947 137.004 2.02346 137.035 2.10903Z" fill="white"/>
<path d="M92.7734 23.7597C92.6348 24.2034 92.4093 24.9244 92.3341 25.17C92.3208 25.2128 92.2471 25.235 92.11 25.235H78.1647V0.565314H80.8329C84.4873 0.565314 88.264 0.565314 91.9862 0.555806C92.2574 0.555806 92.3562 0.636623 92.4476 0.939289L92.7026 1.77915C92.0334 1.5367 90.3204 1.08983 86.7722 1.08983C85.5781 1.08983 82.1921 1.05655 80.7445 1.04229C80.3759 1.03912 80.1445 1.03754 80.1224 1.03754H79.9543V12.0429H84.4976C86.6336 12.0714 87.7318 11.7228 88.1873 11.5215V13.0697C87.7407 12.9001 86.6454 12.6102 84.4947 12.6688C83.3655 12.6989 81.2486 12.6783 80.4511 12.6704C80.0988 12.6672 80.0973 12.6672 80.0811 12.6704L79.9366 12.691V24.739H80.1047C80.1519 24.739 85.9113 24.7057 87.6508 24.6534C89.1883 24.6059 90.9956 24.4617 92.7748 23.7581L92.7734 23.7597Z" fill="white"/>
<path d="M114.589 0.58101C113.561 2.21161 108.385 10.4074 106.759 13.1329L106.464 13.6274C106.336 13.8429 106.261 14.1313 106.261 14.3975C106.247 18.1864 106.247 21.587 106.261 24.7927V25.2142H104.458V22.766C104.458 20.1085 104.458 17.3624 104.449 14.6637C104.449 14.4102 104.368 14.117 104.24 13.8983C102.093 10.2568 99.9219 6.5868 97.892 3.16714L96.3692 0.592103H98.4536C98.5318 0.592103 98.6512 0.793352 98.7145 0.899523C100.743 4.31918 105.391 12.9602 105.438 13.0474L105.575 13.3025L105.726 13.0569C105.739 13.0347 106.211 12.2693 106.915 11.13C109.109 7.57244 113.192 0.951816 113.316 0.745813C113.41 0.58418 113.46 0.582595 113.462 0.582595C113.752 0.579426 114.038 0.579426 114.348 0.582595H114.591L114.589 0.58101Z" fill="white"/>
<path d="M16.1093 19.4857C16.1093 19.9848 16.0533 20.4872 15.9368 20.9721C15.5167 22.7374 14.3846 24.1017 12.7453 24.8132C12.5168 24.9131 12.2825 25.0034 12.0466 25.081C11.056 25.4186 10.0079 25.5834 8.86248 25.5834C8.38043 25.5834 7.87333 25.5533 7.36034 25.4946C4.90738 25.2141 2.58563 24.3458 0.458455 22.918C0.377377 22.8641 0.2963 22.8071 0.215223 22.75L0.0427498 22.6248C0.0294826 22.6153 0.0191637 22.6074 0 22.59L1.31345 21.0862L1.60385 21.3746C4.00669 23.7246 6.79574 24.9463 9.89732 24.9986C10.5931 25.0066 11.2742 24.8956 11.9272 24.6674C12.3075 24.5359 12.6805 24.3632 13.0402 24.1493C14.1251 23.5043 14.8519 22.4886 15.0848 21.2858C15.3206 20.0736 15.0332 18.8185 14.2725 17.7537C13.5974 16.8045 12.6657 16.0121 11.4216 15.3292C10.4029 14.7682 9.34599 14.2373 8.32442 13.7223L7.86891 13.4941C7.69349 13.407 7.51954 13.3198 7.34707 13.2311L7.12742 13.1186C5.78744 12.4451 4.4047 11.7463 3.21361 10.7353C2.00629 9.71003 1.28839 8.58176 1.02305 7.28394C0.505627 4.71841 1.49035 2.38899 3.5158 1.18467C3.82242 1.00243 4.15558 0.845552 4.50937 0.717196C6.51124 -0.00539943 8.62514 0.00252371 11.1606 0.740966C12.4358 1.11177 13.6755 1.69175 14.846 2.46664C14.9285 2.51893 15.0111 2.57756 15.098 2.63936L15.2764 2.76614L14.1074 4.30958C13.9674 4.18597 13.8318 4.06554 13.6947 3.94194L13.6622 3.91341C13.2996 3.58856 12.9561 3.28114 12.5876 2.99908C10.8629 1.68858 9.00989 0.954892 7.08025 0.818613C6.00561 0.744135 5.0489 0.893091 4.15115 1.27657C3.99047 1.34471 3.83569 1.42395 3.68975 1.51269C2.71093 2.09425 2.04167 3.07197 1.82645 4.26045C1.56995 5.66603 1.9945 7.13974 2.93499 8.11113C4.03617 9.2489 5.38795 9.97783 6.67781 10.6291C7.29105 10.9365 7.90871 11.2408 8.52637 11.5435L8.65315 11.6053C9.58627 12.0632 10.5518 12.5354 11.485 13.0267C12.9679 13.8079 14.1104 14.7397 14.9757 15.8727C15.7083 16.8346 16.1078 18.1562 16.1078 19.4888L16.1093 19.4857Z" fill="white"/>
<path d="M70.9636 0.582616H69.2683V25.2174H70.9636V0.582616Z" fill="white"/>
<path d="M62.3873 19.3236C60.4106 22.8525 57.1868 25.2785 53.0756 25.2785C48.5133 25.2785 44.7736 22.0365 42.9885 17.8547C43.2273 17.4348 43.27 17.3429 43.5014 16.9072C46.2344 11.7398 48.4426 5.68832 52.368 2.83607C54.215 1.49393 56.6281 1.38776 58.5459 2.61106C59.849 3.44296 60.9825 4.59179 62.1294 6.43941H63.0448C61.6414 4.02609 59.5011 2.16104 56.9657 1.20553C55.4872 0.64776 53.9055 0.411657 52.3135 0.525747C48.9894 0.777696 45.8629 2.58729 43.6606 5.57264C43.6548 5.57898 43.6518 5.58215 43.6503 5.5869C43.3437 6.00048 43.0548 6.43782 42.788 6.89577C40.742 2.67761 36.5733 -0.166715 31.8076 0.00758866C25.6165 0.231015 20.5722 5.61543 20.3201 12.2675C20.0754 18.7294 24.2868 24.182 29.9222 25.3657C33.5352 26.234 36.2357 25.4592 38.4085 23.7415C39.6467 22.7638 40.714 21.4818 41.6795 20.0224C41.9655 19.5899 42.2455 19.143 42.5153 18.6819C44.4257 22.8763 48.4367 25.765 53.0756 25.765C57.4241 25.765 61.2597 23.1488 63.2895 19.3252H62.3873V19.3236ZM42.1202 8.16502C39.9003 12.4006 37.3472 19.5645 33.4379 22.9729C31.5172 24.6478 28.8668 24.8729 26.7029 23.5925C23.1017 21.4597 21.1249 17.2986 21.2119 12.5464C21.3298 6.16528 25.9879 0.657267 31.924 0.497225C36.5571 0.372043 40.4162 3.56815 42.3266 7.72926L42.1217 8.16502H42.1202Z" fill="white"/>
</svg>
