<svg width="969" height="541" viewBox="0 0 969 541" fill="none" xmlns="http://www.w3.org/2000/svg">
<path opacity="0.4" d="M948.661 405.282C904.094 479.294 831.411 530.175 738.722 530.175C635.862 530.175 551.548 462.178 511.301 374.474C516.685 365.667 517.649 363.739 522.867 354.6C584.483 246.224 634.267 119.303 722.769 59.4819C764.411 31.3327 818.815 29.106 862.053 54.7626C891.432 72.2105 916.989 96.3051 942.845 135.056H963.483C931.844 84.4406 883.589 45.3242 826.426 25.2841C793.092 13.5857 757.432 8.63383 721.54 11.0267C646.597 16.3109 576.108 54.2641 526.456 116.877C526.323 117.01 526.256 117.076 526.223 117.176C519.311 125.85 512.797 135.023 506.781 144.627C460.653 56.1585 366.667 -3.49658 259.221 0.15916C119.638 4.84515 5.91166 117.774 0.228642 257.291C-5.2882 392.819 89.6613 507.177 216.715 532.003C298.171 550.215 359.056 533.964 408.043 497.938C435.96 477.433 460.021 450.546 481.789 419.938C488.237 410.865 494.551 401.493 500.633 391.822C543.704 479.792 634.134 540.378 738.722 540.378C836.762 540.378 923.237 485.509 969 405.315H948.661V405.282ZM491.727 171.248C441.676 260.082 384.115 410.333 295.978 481.82C252.674 516.948 192.919 521.667 144.132 494.814C62.9413 450.081 18.3744 362.809 20.3352 263.14C22.9939 129.307 128.013 13.7851 261.847 10.4285C366.301 7.80298 453.308 74.836 496.379 162.108L491.76 171.248H491.727Z" fill="#3C2C72"/>
</svg>
