<svg width="721" height="126" viewBox="0 0 721 126" fill="none" xmlns="http://www.w3.org/2000/svg">
<path d="M720.391 10.3139C719.135 9.90319 717.523 9.37623 716.671 9.11275C713.587 8.13632 710.433 7.33812 706.736 6.61742C698.661 5.05978 690.547 4.86605 683.557 4.8118H681.636C680.682 4.80405 679.876 4.80405 679.171 4.80405C675.126 4.80405 675.025 4.90479 674.723 5.22252L674.483 5.47825V5.83473C674.491 6.19895 674.483 112.491 674.483 123.355H665.501C665.501 111.685 665.509 6.09046 665.501 5.82698V5.47825L665.261 5.22252C664.966 4.91254 664.873 4.80405 660.898 4.80405C660.139 4.80405 659.232 4.80405 658.155 4.8118H656.303C649.336 4.86605 641.214 5.05978 633.147 6.61742C629.443 7.34587 626.289 8.12857 623.212 9.11275C622.36 9.37623 620.748 9.91094 619.493 10.3139C619.655 9.89544 619.81 9.49247 619.981 9.08175C620.647 7.42337 621.229 5.93547 621.724 4.37008C622.158 2.96743 622.887 2.7117 624.166 2.7117C636.363 2.7272 648.685 2.75044 660.898 2.75044H679.171C691.322 2.75044 703.59 2.73495 715.733 2.7117C716.996 2.7117 717.717 2.96743 718.159 4.37008C718.647 5.92772 719.236 7.42337 719.902 9.074C720.065 9.48472 720.228 9.89544 720.391 10.3139Z" fill="url(#paint0_linear_2456_510)"/>
<path d="M487.707 116.193C486.978 118.363 485.792 121.889 485.397 123.09C485.327 123.3 484.94 123.408 484.219 123.408H410.909V2.76459H424.936C444.147 2.76459 464.001 2.76459 483.568 2.71809C484.994 2.71809 485.513 3.11331 485.994 4.59346L487.335 8.70067C483.816 7.51501 474.811 5.32966 456.159 5.32966C449.881 5.32966 432.081 5.16692 424.471 5.09718C422.534 5.08168 421.317 5.07393 421.201 5.07393H420.317V58.8939H444.201C455.43 59.0334 461.203 57.3285 463.598 56.3443V63.9156C461.25 63.0864 455.492 61.6682 444.186 61.9549C438.25 62.1022 427.121 62.0014 422.929 61.9627C421.077 61.9472 421.069 61.9472 420.984 61.9627L420.224 62.0634V120.983H421.108C421.356 120.983 451.633 120.82 460.777 120.564C468.86 120.332 478.361 119.626 487.714 116.186L487.707 116.193Z" fill="url(#paint1_linear_2456_510)"/>
<path d="M602.393 2.84135C596.984 10.8155 569.776 50.8958 561.228 64.2248L559.678 66.6427C559.004 67.6966 558.609 69.107 558.609 70.4089C558.539 88.9379 558.539 105.568 558.609 121.245V123.307H549.131V111.334C549.131 98.338 549.131 84.9081 549.085 71.7108C549.085 70.4709 548.658 69.0372 547.984 67.9678C536.701 50.1596 525.286 32.2118 514.615 15.4885L506.61 2.8956H517.568C517.978 2.8956 518.606 3.87978 518.939 4.39899C529.602 21.1223 554.036 63.3801 554.284 63.8064L555.005 65.054L555.796 63.8529C555.865 63.7444 558.345 60.0014 562.049 54.4295C573.581 37.032 595.047 4.65472 595.698 3.64729C596.193 2.85685 596.457 2.8491 596.465 2.8491C597.991 2.8336 599.495 2.8336 601.122 2.8491H602.401L602.393 2.84135Z" fill="url(#paint2_linear_2456_510)"/>
<path d="M84.6861 95.2919C84.6861 97.733 84.3916 100.19 83.7794 102.561C81.5708 111.194 75.6192 117.866 67.0018 121.346C65.8006 121.834 64.5685 122.276 63.3286 122.655C58.1209 124.306 52.6111 125.112 46.5897 125.112C44.0557 125.112 41.3899 124.965 38.693 124.678C25.7979 123.306 13.5925 119.06 2.41008 112.077C1.98386 111.814 1.55764 111.535 1.13142 111.256L0.224734 110.644C0.154989 110.597 0.100743 110.558 0 110.473L6.90477 103.119L8.43141 104.529C21.063 116.022 35.725 121.997 52.0299 122.252C55.6876 122.291 59.2679 121.749 62.7009 120.633C64.7002 119.989 66.6608 119.145 68.5517 118.099C74.2553 114.945 78.0758 109.977 79.3002 104.095C80.5401 98.167 79.029 92.0294 75.0303 86.8218C71.481 82.1799 66.5833 78.3051 60.0428 74.9651C54.6879 72.2218 49.1316 69.6257 43.7612 67.1072L41.3666 65.9912C40.4444 65.565 39.53 65.1388 38.6233 64.7048L37.4686 64.1546C30.4244 60.8611 23.1554 57.4436 16.8938 52.4994C10.547 47.4855 6.77303 41.9679 5.37812 35.6211C2.65806 23.0747 7.8347 11.683 18.4825 5.79344C20.0943 4.90225 21.8457 4.13505 23.7056 3.50735C34.2294 -0.0264052 45.3421 0.0123419 58.6711 3.62359C65.3744 5.43696 71.8917 8.27326 78.0448 12.0627C78.4788 12.3185 78.9127 12.6052 79.3699 12.9074L80.3076 13.5274L74.1623 21.0754C73.4261 20.4709 72.7132 19.882 71.9925 19.2775L71.822 19.138C69.9156 17.5494 68.11 16.046 66.1726 14.6666C57.1058 8.25777 47.3647 4.66977 37.2206 4.00331C31.5713 3.63909 26.5419 4.36754 21.8225 6.24291C20.9778 6.57613 20.1641 6.96361 19.3969 7.39758C14.2513 10.2416 10.733 15.023 9.60158 20.8351C8.25317 27.7089 10.485 34.9159 15.4292 39.6663C21.218 45.2304 28.3243 48.7952 35.105 51.9802C38.3288 53.4836 41.5758 54.9715 44.8229 56.4517L45.4893 56.7539C50.3947 58.9935 55.4706 61.3028 60.376 63.7051C68.172 67.5256 74.1778 72.0823 78.7267 77.6232C82.5782 82.3271 84.6783 88.7901 84.6783 95.3074L84.6861 95.2919Z" fill="url(#paint3_linear_2456_510)"/>
<path d="M373.053 2.8492H364.141V123.322H373.053V2.8492Z" fill="url(#paint4_linear_2456_510)"/>
<path d="M327.968 94.4996C317.576 111.757 300.629 123.621 279.017 123.621C255.033 123.621 235.373 107.766 225.989 87.3161C227.244 85.2626 227.469 84.8131 228.686 82.6821C243.053 57.412 254.661 27.8179 275.297 13.8694C285.007 7.30584 297.692 6.78664 307.774 12.769C314.624 16.8373 320.583 22.4555 326.612 31.491H331.424C324.047 19.689 312.795 10.5682 299.467 5.89549C291.694 3.16778 283.379 2.01315 275.01 2.57109C257.536 3.80321 241.1 12.6528 229.523 27.2522C229.492 27.2832 229.476 27.2987 229.468 27.322C227.857 29.3445 226.338 31.4833 224.935 33.7228C214.179 13.0945 192.265 -0.815298 167.211 0.0371113C134.665 1.12975 108.147 27.4615 106.822 59.9925C105.536 91.5937 127.675 118.259 157.3 124.047C176.293 128.294 190.49 124.504 201.912 116.104C208.422 111.323 214.032 105.054 219.108 97.917C220.611 95.8015 222.083 93.6162 223.501 91.3612C233.544 111.873 254.63 126 279.017 126C301.877 126 322.04 113.206 332.711 94.5073H327.968V94.4996ZM221.425 39.9299C209.754 60.6434 196.333 95.6775 175.782 112.346C165.685 120.537 151.752 121.637 140.376 115.376C121.445 104.945 111.053 84.5961 111.51 61.3564C112.13 30.1504 136.618 3.21427 167.824 2.43161C192.179 1.81942 212.467 17.4495 222.51 37.7989L221.432 39.9299H221.425Z" fill="url(#paint5_linear_2456_510)"/>
<defs>
<linearGradient id="paint0_linear_2456_510" x1="381.981" y1="39.375" x2="734.926" y2="41.518" gradientUnits="userSpaceOnUse">
<stop stop-color="#895BF6"/>
<stop offset="1" stop-color="#F9783E"/>
</linearGradient>
<linearGradient id="paint1_linear_2456_510" x1="381.981" y1="39.375" x2="734.926" y2="41.518" gradientUnits="userSpaceOnUse">
<stop stop-color="#895BF6"/>
<stop offset="1" stop-color="#F9783E"/>
</linearGradient>
<linearGradient id="paint2_linear_2456_510" x1="381.981" y1="39.375" x2="734.926" y2="41.518" gradientUnits="userSpaceOnUse">
<stop stop-color="#895BF6"/>
<stop offset="1" stop-color="#F9783E"/>
</linearGradient>
<linearGradient id="paint3_linear_2456_510" x1="381.981" y1="39.375" x2="734.926" y2="41.518" gradientUnits="userSpaceOnUse">
<stop stop-color="#895BF6"/>
<stop offset="1" stop-color="#F9783E"/>
</linearGradient>
<linearGradient id="paint4_linear_2456_510" x1="381.981" y1="39.375" x2="734.926" y2="41.518" gradientUnits="userSpaceOnUse">
<stop stop-color="#895BF6"/>
<stop offset="1" stop-color="#F9783E"/>
</linearGradient>
<linearGradient id="paint5_linear_2456_510" x1="381.981" y1="39.375" x2="734.926" y2="41.518" gradientUnits="userSpaceOnUse">
<stop stop-color="#895BF6"/>
<stop offset="1" stop-color="#F9783E"/>
</linearGradient>
</defs>
</svg>
